<?xml version="1.0" standalone="no"?>
<!DOCTYPE svg PUBLIC "-//W3C//DTD SVG 20010904//EN"
 "http://www.w3.org/TR/2001/REC-SVG-20010904/DTD/svg10.dtd">
<svg version="1.0" xmlns="http://www.w3.org/2000/svg"
 width="1024.000000pt" height="1024.000000pt" viewBox="0 0 1024.000000 1024.000000"
 preserveAspectRatio="xMidYMid meet">
<metadata>
Created by potrace 1.11, written by Peter Selinger 2001-2013
</metadata>
<g transform="translate(0.000000,1024.000000) scale(0.100000,-0.100000)"
fill="#000000" stroke="none">
<path d="M3455 8649 c-907 -874 -1655 -1592 -1661 -1595 -7 -3 -258 137 -558
310 -301 174 -549 316 -552 316 -2 0 -4 -1153 -4 -2562 l0 -2563 2191 -1265
c1205 -696 2204 -1271 2219 -1279 28 -14 63 6 2244 1265 l2216 1279 0 2562 c0
1410 -2 2563 -4 2563 -2 0 -1000 -575 -2218 -1278 l-2213 -1277 -2 -645 c-2
-544 0 -642 11 -627 7 10 134 226 281 481 l267 463 1105 637 c747 431 1110
636 1121 631 9 -3 135 -74 280 -157 l262 -152 0 -1276 0 -1276 -1649 -952
c-907 -523 -1656 -955 -1665 -958 -10 -4 -605 334 -1676 952 l-1660 958 0
1916 0 1916 1658 957 c912 526 1663 957 1668 957 5 0 378 -213 829 -474 l820
-473 3 -322 c2 -259 5 -322 15 -319 20 5 1657 951 1657 958 0 8 -3299 1912
-3319 1916 -10 2 -650 -607 -1666 -1587z"/>
</g>
</svg>
